<mxfile modified="2020-04-23T18:45:07.639Z" host="app.diagrams.net" agent="5.0 (Windows NT 6.1; Win64; x64) AppleWebKit/537.36 (KHTML, like Gecko) Chrome/80.0.3987.122 Safari/537.36" etag="aTEIqw6-r6M34CQfyJI8" version="13.0.1" type="github">
  <diagram name="Page-1" id="c37626ed-c26b-45fb-9056-f9ebc6bb27b6">
    <mxGraphModel dx="1406" dy="698" grid="1" gridSize="10" guides="1" tooltips="1" connect="1" arrows="1" fold="1" page="1" pageScale="1" pageWidth="1100" pageHeight="850" background="#ffffff" math="0" shadow="0">
      <root>
        <mxCell id="0" />
        <mxCell id="1" parent="0" />
        <mxCell id="QfznqnuBZ1IlKUxBiRQi-20" value="LAN" style="whiteSpace=wrap;html=1;rounded=0;shadow=0;comic=0;strokeWidth=1;fontFamily=Verdana;fontSize=14;fillColor=#f5f5f5;strokeColor=none;verticalAlign=top;fontStyle=1" parent="1" vertex="1">
          <mxGeometry x="500" y="920" width="1240" height="120" as="geometry" />
        </mxCell>
        <mxCell id="1c7a67bf8fd3230f-83" value="DMZ" style="whiteSpace=wrap;html=1;rounded=0;shadow=0;comic=0;strokeWidth=1;fontFamily=Verdana;fontSize=14;fillColor=#f5f5f5;strokeColor=none;verticalAlign=top;fontStyle=1" parent="1" vertex="1">
          <mxGeometry x="500" y="160" width="1240" height="220" as="geometry" />
        </mxCell>
        <mxCell id="QfznqnuBZ1IlKUxBiRQi-1" value="IHS F5 VIP" style="shape=mxgraph.cisco.misc.vip;html=1;dashed=0;fillColor=#036897;strokeColor=#ffffff;strokeWidth=2;verticalLabelPosition=bottom;verticalAlign=top" parent="1" vertex="1">
          <mxGeometry x="1067" y="195" width="64" height="86" as="geometry" />
        </mxCell>
        <mxCell id="QfznqnuBZ1IlKUxBiRQi-4" value="External Users" style="aspect=fixed;perimeter=ellipsePerimeter;html=1;align=center;shadow=0;dashed=0;spacingTop=3;image;image=img/lib/active_directory/user_accounts.svg;" parent="1" vertex="1">
          <mxGeometry x="1081" y="32" width="50" height="48.5" as="geometry" />
        </mxCell>
        <mxCell id="QfznqnuBZ1IlKUxBiRQi-6" value="INFRA IHS" style="rounded=0;whiteSpace=wrap;html=1;fillColor=#dae8fc;strokeColor=#6c8ebf;" parent="1" vertex="1">
          <mxGeometry x="536" y="304" width="190" height="60" as="geometry" />
        </mxCell>
        <mxCell id="QfznqnuBZ1IlKUxBiRQi-7" value="INFRA IHS" style="rounded=0;whiteSpace=wrap;html=1;strokeColor=#6c8ebf;fillColor=#dae8fc;" parent="1" vertex="1">
          <mxGeometry x="1504" y="304" width="190" height="60" as="geometry" />
        </mxCell>
        <mxCell id="QfznqnuBZ1IlKUxBiRQi-9" value="ISEC" style="whiteSpace=wrap;html=1;rounded=0;shadow=0;comic=0;strokeWidth=1;fontFamily=Verdana;fontSize=14;fillColor=#f5f5f5;strokeColor=none;verticalAlign=top;fontStyle=1" parent="1" vertex="1">
          <mxGeometry x="500" y="390" width="1240" height="510" as="geometry" />
        </mxCell>
        <mxCell id="QfznqnuBZ1IlKUxBiRQi-11" value="Edge&lt;br&gt;alphagateway.aib.pri" style="rounded=0;whiteSpace=wrap;html=1;strokeColor=#6c8ebf;fillColor=#dae8fc;" parent="1" vertex="1">
          <mxGeometry x="529" y="640" width="271" height="60" as="geometry" />
        </mxCell>
        <mxCell id="QfznqnuBZ1IlKUxBiRQi-12" value="Edge&lt;br&gt;omegagateway.aib.pri" style="rounded=0;whiteSpace=wrap;html=1;strokeColor=#6c8ebf;fillColor=#dae8fc;" parent="1" vertex="1">
          <mxGeometry x="1433" y="640" width="271" height="60" as="geometry" />
        </mxCell>
        <mxCell id="QfznqnuBZ1IlKUxBiRQi-13" value="DBB VIP" style="shape=mxgraph.cisco.misc.vip;html=1;dashed=0;fillColor=#036897;strokeColor=#ffffff;strokeWidth=2;verticalLabelPosition=bottom;verticalAlign=top" parent="1" vertex="1">
          <mxGeometry x="1072" y="437" width="64" height="86" as="geometry" />
        </mxCell>
        <mxCell id="QfznqnuBZ1IlKUxBiRQi-14" value="CX" style="rounded=0;whiteSpace=wrap;html=1;fillColor=#dae8fc;strokeColor=#6c8ebf;" parent="1" vertex="1">
          <mxGeometry x="529" y="812" width="221" height="60" as="geometry" />
        </mxCell>
        <mxCell id="QfznqnuBZ1IlKUxBiRQi-15" value="CX" style="rounded=0;whiteSpace=wrap;html=1;fillColor=#dae8fc;strokeColor=#6c8ebf;" parent="1" vertex="1">
          <mxGeometry x="1483" y="812" width="221" height="60" as="geometry" />
        </mxCell>
        <mxCell id="QfznqnuBZ1IlKUxBiRQi-16" value="Auth (DBS)" style="rounded=0;whiteSpace=wrap;html=1;fillColor=#dae8fc;strokeColor=#6c8ebf;" parent="1" vertex="1">
          <mxGeometry x="529" y="733" width="87" height="60" as="geometry" />
        </mxCell>
        <mxCell id="QfznqnuBZ1IlKUxBiRQi-17" value="Auth (DBS)" style="rounded=0;whiteSpace=wrap;html=1;strokeColor=#6c8ebf;fillColor=#dae8fc;" parent="1" vertex="1">
          <mxGeometry x="1504" y="733" width="87" height="60" as="geometry" />
        </mxCell>
        <mxCell id="6oNJGKLIgyjYE0U5j6M9-2" value="" style="endArrow=none;startArrow=classic;html=1;entryX=1.016;entryY=0.814;entryDx=0;entryDy=0;entryPerimeter=0;exitX=0;exitY=0;exitDx=0;exitDy=0;startFill=1;endFill=0;" parent="1" source="QfznqnuBZ1IlKUxBiRQi-7" target="QfznqnuBZ1IlKUxBiRQi-1" edge="1">
          <mxGeometry width="50" height="50" relative="1" as="geometry">
            <mxPoint x="1310" y="350" as="sourcePoint" />
            <mxPoint x="1360" y="300" as="targetPoint" />
          </mxGeometry>
        </mxCell>
        <mxCell id="6oNJGKLIgyjYE0U5j6M9-5" value="" style="endArrow=classic;startArrow=none;html=1;entryX=1;entryY=0;entryDx=0;entryDy=0;exitX=-0.047;exitY=0.826;exitDx=0;exitDy=0;exitPerimeter=0;startFill=0;" parent="1" source="QfznqnuBZ1IlKUxBiRQi-1" target="QfznqnuBZ1IlKUxBiRQi-6" edge="1">
          <mxGeometry width="50" height="50" relative="1" as="geometry">
            <mxPoint x="1120" y="480" as="sourcePoint" />
            <mxPoint x="1170" y="430" as="targetPoint" />
          </mxGeometry>
        </mxCell>
        <mxCell id="6oNJGKLIgyjYE0U5j6M9-6" value="" style="endArrow=none;startArrow=classic;html=1;entryX=1;entryY=1;entryDx=0;entryDy=0;exitX=-0.047;exitY=0.093;exitDx=0;exitDy=0;exitPerimeter=0;endFill=0;startFill=1;" parent="1" source="QfznqnuBZ1IlKUxBiRQi-13" target="QfznqnuBZ1IlKUxBiRQi-6" edge="1">
          <mxGeometry width="50" height="50" relative="1" as="geometry">
            <mxPoint x="1057" y="490.5" as="sourcePoint" />
            <mxPoint x="890" y="460" as="targetPoint" />
          </mxGeometry>
        </mxCell>
        <mxCell id="6oNJGKLIgyjYE0U5j6M9-7" value="" style="endArrow=none;startArrow=classic;html=1;entryX=0;entryY=1;entryDx=0;entryDy=0;exitX=1;exitY=0;exitDx=0;exitDy=0;exitPerimeter=0;endFill=0;startFill=1;" parent="1" source="QfznqnuBZ1IlKUxBiRQi-13" target="QfznqnuBZ1IlKUxBiRQi-7" edge="1">
          <mxGeometry width="50" height="50" relative="1" as="geometry">
            <mxPoint x="1139.9920000000002" y="496.999" as="sourcePoint" />
            <mxPoint x="1300" y="450" as="targetPoint" />
          </mxGeometry>
        </mxCell>
        <mxCell id="6oNJGKLIgyjYE0U5j6M9-11" value="" style="endArrow=classic;startArrow=classic;html=1;entryX=0.25;entryY=1;entryDx=0;entryDy=0;" parent="1" source="QfznqnuBZ1IlKUxBiRQi-16" target="QfznqnuBZ1IlKUxBiRQi-11" edge="1">
          <mxGeometry width="50" height="50" relative="1" as="geometry">
            <mxPoint x="760" y="688" as="sourcePoint" />
            <mxPoint x="810" y="638" as="targetPoint" />
          </mxGeometry>
        </mxCell>
        <mxCell id="6oNJGKLIgyjYE0U5j6M9-23" value="" style="endArrow=classic;startArrow=classic;html=1;entryX=0.25;entryY=1;entryDx=0;entryDy=0;" parent="1" source="QfznqnuBZ1IlKUxBiRQi-17" target="QfznqnuBZ1IlKUxBiRQi-12" edge="1">
          <mxGeometry width="50" height="50" relative="1" as="geometry">
            <mxPoint x="1170" y="728" as="sourcePoint" />
            <mxPoint x="1220" y="678" as="targetPoint" />
          </mxGeometry>
        </mxCell>
        <mxCell id="6oNJGKLIgyjYE0U5j6M9-28" value="Auth (AIB)" style="rounded=0;whiteSpace=wrap;html=1;fillColor=#dae8fc;strokeColor=#6c8ebf;" parent="1" vertex="1">
          <mxGeometry x="1607" y="733" width="87" height="60" as="geometry" />
        </mxCell>
        <mxCell id="6oNJGKLIgyjYE0U5j6M9-29" value="Auth (AIB)" style="rounded=0;whiteSpace=wrap;html=1;fillColor=#dae8fc;strokeColor=#6c8ebf;" parent="1" vertex="1">
          <mxGeometry x="639" y="733" width="87" height="60" as="geometry" />
        </mxCell>
        <mxCell id="RRaRMntgKjidEFnBLUo5-1" value="DBS" style="rounded=0;whiteSpace=wrap;html=1;fillColor=#dae8fc;strokeColor=#6c8ebf;" parent="1" vertex="1">
          <mxGeometry x="520" y="948" width="404" height="60" as="geometry" />
        </mxCell>
        <mxCell id="RRaRMntgKjidEFnBLUo5-2" value="DBS" style="rounded=0;whiteSpace=wrap;html=1;fillColor=#dae8fc;strokeColor=#6c8ebf;" parent="1" vertex="1">
          <mxGeometry x="1320" y="948" width="404" height="60" as="geometry" />
        </mxCell>
        <mxCell id="RRaRMntgKjidEFnBLUo5-9" value="" style="endArrow=classic;startArrow=classic;html=1;" parent="1" edge="1">
          <mxGeometry width="50" height="50" relative="1" as="geometry">
            <mxPoint x="1104" y="197" as="sourcePoint" />
            <mxPoint x="1104" y="110" as="targetPoint" />
          </mxGeometry>
        </mxCell>
        <mxCell id="EP9Ph4Vk5-Rlfjb0yMCm-3" value="" style="endArrow=classic;startArrow=classic;html=1;entryX=0.75;entryY=1;entryDx=0;entryDy=0;exitX=0.5;exitY=0;exitDx=0;exitDy=0;fillColor=#d5e8d4;strokeColor=#82b366;" parent="1" source="6oNJGKLIgyjYE0U5j6M9-29" target="QfznqnuBZ1IlKUxBiRQi-11" edge="1">
          <mxGeometry width="50" height="50" relative="1" as="geometry">
            <mxPoint x="820" y="670" as="sourcePoint" />
            <mxPoint x="810" y="740" as="targetPoint" />
          </mxGeometry>
        </mxCell>
        <mxCell id="EP9Ph4Vk5-Rlfjb0yMCm-6" value="Content IHS" style="rounded=0;whiteSpace=wrap;html=1;fillColor=#d5e8d4;strokeColor=#82b366;" parent="1" vertex="1">
          <mxGeometry x="813" y="640" width="87" height="60" as="geometry" />
        </mxCell>
        <mxCell id="EP9Ph4Vk5-Rlfjb0yMCm-10" value="Content IHS" style="rounded=0;whiteSpace=wrap;html=1;fillColor=#d5e8d4;strokeColor=#82b366;" parent="1" vertex="1">
          <mxGeometry x="1333" y="640" width="87" height="60" as="geometry" />
        </mxCell>
        <mxCell id="EP9Ph4Vk5-Rlfjb0yMCm-17" value="" style="endArrow=classic;startArrow=classic;html=1;entryX=0.881;entryY=1.063;entryDx=0;entryDy=0;entryPerimeter=0;exitX=0.5;exitY=0;exitDx=0;exitDy=0;fillColor=#d5e8d4;strokeColor=#82b366;" parent="1" source="6oNJGKLIgyjYE0U5j6M9-28" target="QfznqnuBZ1IlKUxBiRQi-12" edge="1">
          <mxGeometry width="50" height="50" relative="1" as="geometry">
            <mxPoint x="1630" y="770" as="sourcePoint" />
            <mxPoint x="1680" y="720" as="targetPoint" />
          </mxGeometry>
        </mxCell>
        <mxCell id="EP9Ph4Vk5-Rlfjb0yMCm-18" value="&lt;h1&gt;INFRA IHS&lt;/h1&gt;&lt;p&gt;Black-box (dumb) IHS, should never changes across releases&lt;/p&gt;" style="text;html=1;strokeColor=none;fillColor=none;spacing=5;spacingTop=-20;whiteSpace=wrap;overflow=hidden;rounded=0;" parent="1" vertex="1">
          <mxGeometry x="720" y="170" width="190" height="120" as="geometry" />
        </mxCell>
        <mxCell id="EP9Ph4Vk5-Rlfjb0yMCm-22" value="&lt;h1&gt;Content IHS&lt;/h1&gt;&lt;p&gt;&lt;/p&gt;&lt;ul&gt;&lt;li&gt;Content caching rules&lt;/li&gt;&lt;li&gt;Version management&lt;/li&gt;&lt;li&gt;CORS (content) rules&lt;/li&gt;&lt;li&gt;Content management rules&lt;/li&gt;&lt;/ul&gt;&lt;p&gt;&lt;/p&gt;&lt;p&gt;&lt;br&gt;&lt;/p&gt;" style="text;html=1;strokeColor=none;fillColor=none;spacing=5;spacingTop=-20;whiteSpace=wrap;overflow=hidden;rounded=0;" parent="1" vertex="1">
          <mxGeometry x="1001" y="740" width="190" height="120" as="geometry" />
        </mxCell>
        <mxCell id="EP9Ph4Vk5-Rlfjb0yMCm-23" value="" style="endArrow=classic;html=1;exitX=0;exitY=0.5;exitDx=0;exitDy=0;edgeStyle=elbowEdgeStyle;fillColor=#d5e8d4;strokeColor=#82b366;" parent="1" source="QfznqnuBZ1IlKUxBiRQi-14" edge="1">
          <mxGeometry width="50" height="50" relative="1" as="geometry">
            <mxPoint x="510" y="780" as="sourcePoint" />
            <mxPoint x="1072" y="470" as="targetPoint" />
            <Array as="points">
              <mxPoint x="510" y="640" />
            </Array>
          </mxGeometry>
        </mxCell>
        <mxCell id="EP9Ph4Vk5-Rlfjb0yMCm-24" value="" style="endArrow=classic;html=1;exitX=1;exitY=0.5;exitDx=0;exitDy=0;edgeStyle=elbowEdgeStyle;entryX=1.063;entryY=0.384;entryDx=0;entryDy=0;entryPerimeter=0;fillColor=#d5e8d4;strokeColor=#82b366;" parent="1" source="QfznqnuBZ1IlKUxBiRQi-15" target="QfznqnuBZ1IlKUxBiRQi-13" edge="1">
          <mxGeometry width="50" height="50" relative="1" as="geometry">
            <mxPoint x="1720" y="850" as="sourcePoint" />
            <mxPoint x="1810" y="740" as="targetPoint" />
            <Array as="points">
              <mxPoint x="1720" y="490" />
            </Array>
          </mxGeometry>
        </mxCell>
        <mxCell id="EP9Ph4Vk5-Rlfjb0yMCm-26" value="" style="endArrow=classic;startArrow=none;html=1;startFill=0;entryX=0.376;entryY=-0.083;entryDx=0;entryDy=0;entryPerimeter=0;exitX=0.14;exitY=1.133;exitDx=0;exitDy=0;exitPerimeter=0;" parent="1" source="QfznqnuBZ1IlKUxBiRQi-12" edge="1" target="RRaRMntgKjidEFnBLUo5-2">
          <mxGeometry width="50" height="50" relative="1" as="geometry">
            <mxPoint x="1330" y="670" as="sourcePoint" />
            <mxPoint x="1330.02" y="948" as="targetPoint" />
          </mxGeometry>
        </mxCell>
        <mxCell id="wRUYfPCryLNPpYMVrnq4-1" value="Traffic Gateway (Spring Cloud GW)" style="rounded=0;whiteSpace=wrap;html=1;fillColor=#d5e8d4;strokeColor=#82b366;" parent="1" vertex="1">
          <mxGeometry x="529" y="550" width="371" height="60" as="geometry" />
        </mxCell>
        <mxCell id="wRUYfPCryLNPpYMVrnq4-2" value="" style="endArrow=classic;html=1;exitX=0.557;exitY=0.05;exitDx=0;exitDy=0;exitPerimeter=0;entryX=0.557;entryY=0.05;entryDx=0;entryDy=0;entryPerimeter=0;fillColor=#d5e8d4;strokeColor=#82b366;" parent="1" target="QfznqnuBZ1IlKUxBiRQi-11" edge="1">
          <mxGeometry width="50" height="50" relative="1" as="geometry">
            <mxPoint x="710" y="610" as="sourcePoint" />
            <mxPoint x="660" y="660" as="targetPoint" />
          </mxGeometry>
        </mxCell>
        <mxCell id="wRUYfPCryLNPpYMVrnq4-3" value="Traffic Gateway (Spring Cloud GW)" style="rounded=0;whiteSpace=wrap;html=1;fillColor=#d5e8d4;strokeColor=#82b366;" parent="1" vertex="1">
          <mxGeometry x="1333" y="550" width="371" height="60" as="geometry" />
        </mxCell>
        <mxCell id="7arDR_sjY8IiMj0KGwgR-1" value="" style="endArrow=classic;html=1;entryX=0.542;entryY=0;entryDx=0;entryDy=0;entryPerimeter=0;exitX=-0.031;exitY=0.733;exitDx=0;exitDy=0;exitPerimeter=0;fillColor=#d5e8d4;strokeColor=#82b366;" edge="1" parent="1" source="QfznqnuBZ1IlKUxBiRQi-13" target="wRUYfPCryLNPpYMVrnq4-1">
          <mxGeometry width="50" height="50" relative="1" as="geometry">
            <mxPoint x="940" y="540" as="sourcePoint" />
            <mxPoint x="990" y="490" as="targetPoint" />
          </mxGeometry>
        </mxCell>
        <mxCell id="7arDR_sjY8IiMj0KGwgR-4" value="" style="endArrow=classic;html=1;exitX=0.854;exitY=1.067;exitDx=0;exitDy=0;exitPerimeter=0;entryX=0.5;entryY=0;entryDx=0;entryDy=0;fillColor=#d5e8d4;strokeColor=#82b366;" edge="1" parent="1" source="wRUYfPCryLNPpYMVrnq4-1" target="EP9Ph4Vk5-Rlfjb0yMCm-6">
          <mxGeometry width="50" height="50" relative="1" as="geometry">
            <mxPoint x="960" y="660" as="sourcePoint" />
            <mxPoint x="1010" y="610" as="targetPoint" />
          </mxGeometry>
        </mxCell>
        <mxCell id="7arDR_sjY8IiMj0KGwgR-5" value="&lt;h1&gt;Traffic Gateway&lt;/h1&gt;&lt;p&gt;&lt;/p&gt;&lt;ul&gt;&lt;li&gt;&lt;span&gt;Splits API and Content requests&lt;/span&gt;&lt;br&gt;&lt;/li&gt;&lt;li&gt;Manages traffic during releases&lt;/li&gt;&lt;li&gt;Maintenance page&lt;/li&gt;&lt;li&gt;internal / external user DC split&lt;/li&gt;&lt;li&gt;Keeps IPS free from non-product config&lt;/li&gt;&lt;/ul&gt;&lt;p&gt;&lt;/p&gt;" style="text;html=1;strokeColor=none;fillColor=none;spacing=5;spacingTop=-20;whiteSpace=wrap;overflow=hidden;rounded=0;" vertex="1" parent="1">
          <mxGeometry x="1001" y="560" width="249" height="140" as="geometry" />
        </mxCell>
        <mxCell id="7arDR_sjY8IiMj0KGwgR-7" value="" style="endArrow=classic;html=1;entryX=0.5;entryY=0;entryDx=0;entryDy=0;exitX=1;exitY=0.744;exitDx=0;exitDy=0;exitPerimeter=0;fillColor=#d5e8d4;strokeColor=#82b366;" edge="1" parent="1" source="QfznqnuBZ1IlKUxBiRQi-13" target="wRUYfPCryLNPpYMVrnq4-3">
          <mxGeometry width="50" height="50" relative="1" as="geometry">
            <mxPoint x="1080.016" y="510.038" as="sourcePoint" />
            <mxPoint x="740.0819999999999" y="560" as="targetPoint" />
          </mxGeometry>
        </mxCell>
      </root>
    </mxGraphModel>
  </diagram>
</mxfile>
